<svg width="30" height="31" viewBox="0 0 30 31" fill="none" xmlns="http://www.w3.org/2000/svg">
<g clip-path="url(#clip0_1026_9774)">
<path d="M28.5775 16.6396H25.8398V1.53552C25.8398 0.74398 25.1959 0.0999756 24.4043 0.0999756H20.5341C20.2914 0.0999756 20.0947 0.296733 20.0947 0.539429C20.0947 0.782124 20.2914 0.978882 20.5341 0.978882H24.4043C24.7112 0.978882 24.9609 1.22861 24.9609 1.53552V16.6396H12.7668C11.9819 16.6396 11.3443 17.2791 11.3443 18.0621V26.7164H5.5957C5.28879 26.7164 5.03906 26.4667 5.03906 26.1598V15.7723C11.1864 15.7723 10.804 15.7733 10.8626 15.7703C11.6226 15.7316 12.2231 15.0985 12.2231 14.3367V8.63386C12.2231 7.84232 11.5792 7.19832 10.7876 7.19832H5.03906V1.53552C5.03906 1.22861 5.28879 0.978882 5.5957 0.978882H18.4833C18.7261 0.978882 18.9228 0.782124 18.9228 0.539429C18.9228 0.296733 18.7261 0.0999756 18.4833 0.0999756H5.5957C4.8041 0.0999756 4.16016 0.74398 4.16016 1.53552V7.19832H1.43555C0.643945 7.19832 0 7.84232 0 8.63386V14.3368C0 15.1283 0.643945 15.7723 1.43555 15.7723H4.16016V26.1598C4.16016 26.9514 4.8041 27.5954 5.5957 27.5954H11.3442V28.6776C11.3442 29.4288 11.9354 30.0599 12.6932 30.0982H12.6936C12.7179 30.0994 12.7423 30.1 12.7667 30.1C28.9782 30.1 28.6509 30.0982 28.6509 30.0982C29.4048 30.0601 29.9999 29.4328 29.9999 28.6776V25.9176C29.9999 25.6749 29.8032 25.4781 29.5605 25.4781C29.3177 25.4781 29.121 25.6749 29.121 25.9176V28.6776C29.121 28.6812 29.1206 28.6848 29.1205 28.6884L22.667 23.7547L29.1211 18.4435V23.8668C29.1211 24.1095 29.3178 24.3062 29.5605 24.3062C29.8033 24.3062 30 24.1095 30 23.8668V18.0622C30 17.2797 29.3631 16.6396 28.5775 16.6396ZM0.878906 14.3367V8.6338C0.878906 8.32689 1.12863 8.07716 1.43555 8.07716H10.7876C11.0945 8.07716 11.3442 8.32689 11.3442 8.6338V14.3367C11.3442 14.6381 11.0981 14.8933 10.7876 14.8933H4.59961C4.59943 14.8933 4.59926 14.8933 4.59902 14.8933H1.43555C1.12863 14.8934 0.878906 14.6436 0.878906 14.3367ZM28.8021 17.5677L20.9135 24.0595C20.7684 24.1788 20.5624 24.1678 20.4308 24.0595C19.9639 23.6752 12.9962 17.9414 12.5422 17.5678C12.6111 17.5367 12.6843 17.5186 12.7668 17.5186H28.5775C28.6495 17.5186 28.7285 17.5343 28.8021 17.5677ZM12.2237 28.6883C12.2237 28.6847 12.2232 28.6811 12.2232 28.6775C12.2232 28.2714 12.2232 18.9987 12.2232 18.4435L18.6772 23.7547L12.2237 28.6883ZM21.9701 24.3282L28.3703 29.2211C27.752 29.2211 13.6427 29.2211 12.9739 29.2211L19.3741 24.3282L19.8723 24.7382C20.3378 25.1214 21.0143 25.1149 21.4719 24.7382L21.9701 24.3282Z" fill="#867BF2"/>
<path d="M6.09375 3.88904C6.09375 4.8583 6.8823 5.64685 7.85156 5.64685C8.82082 5.64685 9.60938 4.8583 9.60938 3.88904C9.60938 2.91978 8.82082 2.13123 7.85156 2.13123C6.8823 2.13123 6.09375 2.91978 6.09375 3.88904ZM8.73047 3.88904C8.73047 4.37367 8.33619 4.76794 7.85156 4.76794C7.36693 4.76794 6.97266 4.37367 6.97266 3.88904C6.97266 3.40441 7.36693 3.01013 7.85156 3.01013C8.33619 3.01013 8.73047 3.40441 8.73047 3.88904Z" fill="#867BF2"/>
<path d="M5.30859 11.485C5.30859 10.5157 4.52004 9.72717 3.55078 9.72717C2.58152 9.72717 1.79297 10.5157 1.79297 11.485C1.79297 12.4542 2.58152 13.2428 3.55078 13.2428C4.52004 13.2428 5.30859 12.4542 5.30859 11.485ZM2.67188 11.485C2.67188 11.0004 3.06615 10.6061 3.55078 10.6061C4.03541 10.6061 4.42969 11.0004 4.42969 11.485C4.42969 11.9696 4.03541 12.3639 3.55078 12.3639C3.06615 12.3639 2.67188 11.9696 2.67188 11.485Z" fill="#867BF2"/>
<path d="M20.6719 22.5901C21.6411 22.5901 22.4297 21.8015 22.4297 20.8323C22.4297 19.863 21.6411 19.0745 20.6719 19.0745C19.7026 19.0745 18.9141 19.863 18.9141 20.8323C18.9141 21.8015 19.7026 22.5901 20.6719 22.5901ZM20.6719 19.9534C21.1565 19.9534 21.5508 20.3476 21.5508 20.8323C21.5508 21.3169 21.1565 21.7112 20.6719 21.7112C20.1872 21.7112 19.793 21.3169 19.793 20.8323C19.793 20.3476 20.1872 19.9534 20.6719 19.9534Z" fill="#867BF2"/>
<path d="M10.5195 3.91577C10.5195 4.15847 10.7162 4.35522 10.959 4.35522H22.3842C22.6269 4.35522 22.8236 4.15847 22.8236 3.91577C22.8236 3.67308 22.6269 3.47632 22.3842 3.47632H10.959C10.7163 3.47632 10.5195 3.67308 10.5195 3.91577Z" fill="#867BF2"/>
<path d="M6.44531 11.9247H10.0801C10.3228 11.9247 10.5195 11.7279 10.5195 11.4852C10.5195 11.2425 10.3228 11.0458 10.0801 11.0458H6.44531C6.20256 11.0458 6.00586 11.2425 6.00586 11.4852C6.00586 11.7279 6.20256 11.9247 6.44531 11.9247Z" fill="#867BF2"/>
</g>
<defs>
<clipPath id="clip0_1026_9774">
<rect width="30" height="30" fill="white" transform="translate(0 0.0999756)"/>
</clipPath>
</defs>
</svg>
