<svg width="30" height="31" viewBox="0 0 30 31" fill="none" xmlns="http://www.w3.org/2000/svg">
<path d="M2.31922 6.14698C2.43487 6.14698 2.54877 6.10002 2.63037 6.01783C2.71257 5.93622 2.75953 5.82291 2.75953 5.70667C2.75953 5.59102 2.71257 5.47712 2.63037 5.39552C2.54877 5.31332 2.43487 5.26636 2.31922 5.26636C2.20356 5.26636 2.08967 5.31332 2.00806 5.39552C1.92587 5.47712 1.87891 5.59102 1.87891 5.70667C1.87891 5.82233 1.92587 5.93622 2.00806 6.01783C2.08967 6.10002 2.20356 6.14698 2.31922 6.14698Z" fill="#F0A14C"/>
<path d="M3.72742 6.14698C3.84308 6.14698 3.95697 6.10002 4.03858 6.01783C4.12077 5.93622 4.16774 5.82233 4.16774 5.70667C4.16774 5.59102 4.12077 5.47712 4.03858 5.39552C3.95697 5.31332 3.84308 5.26636 3.72742 5.26636C3.61177 5.26636 3.49787 5.31332 3.41627 5.39552C3.33408 5.47712 3.28711 5.59102 3.28711 5.70667C3.28711 5.82233 3.33408 5.93622 3.41627 6.01783C3.49787 6.10002 3.61177 6.14698 3.72742 6.14698Z" fill="#F0A14C"/>
<path d="M5.13758 6.14698C5.25323 6.14698 5.36713 6.10002 5.44873 6.01783C5.53093 5.93622 5.57789 5.82233 5.57789 5.70667C5.57789 5.59102 5.53093 5.47712 5.44873 5.39552C5.36713 5.31332 5.25323 5.26636 5.13758 5.26636C5.02134 5.26636 4.90803 5.31332 4.82642 5.39552C4.74423 5.47712 4.69727 5.59102 4.69727 5.70667C4.69727 5.82233 4.74423 5.93622 4.82642 6.01783C4.90803 6.10002 5.02192 6.14698 5.13758 6.14698Z" fill="#F0A14C"/>
<path d="M7.01649 6.14698H24.8638C25.107 6.14698 25.3042 5.94984 25.3042 5.70667C25.3042 5.4635 25.107 5.26636 24.8638 5.26636H7.01649C6.77331 5.26636 6.57617 5.4635 6.57617 5.70667C6.57617 5.94984 6.77331 6.14698 7.01649 6.14698Z" fill="#F0A14C"/>
<path d="M26.7411 6.14698H27.6804C27.9236 6.14698 28.1207 5.94984 28.1207 5.70667C28.1207 5.4635 27.9236 5.26636 27.6804 5.26636H26.7411C26.4979 5.26636 26.3008 5.4635 26.3008 5.70667C26.3008 5.94984 26.4979 6.14698 26.7411 6.14698Z" fill="#F0A14C"/>
<path d="M13.1217 9.96313H3.72834C3.22656 9.96313 2.81836 10.3713 2.81836 10.8731V12.7518C2.81836 13.2536 3.22656 13.6618 3.72834 13.6618H13.1217C13.6235 13.6618 14.0317 13.2536 14.0317 12.7518V10.8731C14.0317 10.3713 13.6235 9.96313 13.1217 9.96313ZM13.151 12.7518C13.151 12.7679 13.1379 12.7811 13.1217 12.7811H3.72834C3.71214 12.7811 3.69899 12.7679 3.69899 12.7518V10.8731C3.69899 10.857 3.71214 10.8438 3.72834 10.8438H13.1217C13.1379 10.8438 13.151 10.857 13.151 10.8731V12.7518Z" fill="#F0A14C"/>
<path d="M26.7422 11.372H23.8224C23.6382 10.8266 23.122 10.4326 22.5152 10.4326C21.9084 10.4326 21.3922 10.8266 21.208 11.372H20.1669C19.9237 11.372 19.7266 11.5691 19.7266 11.8123C19.7266 12.0554 19.9237 12.2526 20.1669 12.2526H21.208C21.3922 12.798 21.9084 13.1919 22.5152 13.1919C23.122 13.1919 23.6382 12.798 23.8224 12.2526H26.7422C26.9854 12.2526 27.1825 12.0554 27.1825 11.8123C27.1825 11.5691 26.9854 11.372 26.7422 11.372ZM22.5152 12.3113C22.24 12.3113 22.0162 12.0874 22.0162 11.8123C22.0162 11.5371 22.24 11.3132 22.5152 11.3132C22.7904 11.3132 23.0142 11.5371 23.0142 11.8123C23.0142 12.0874 22.7904 12.3113 22.5152 12.3113Z" fill="#F0A14C"/>
<path d="M16.8786 9.96313C15.8589 9.96313 15.0293 10.7927 15.0293 11.8124C15.0293 12.8322 15.8589 13.6618 16.8786 13.6618C17.8983 13.6618 18.7279 12.8322 18.7279 11.8124C18.7279 10.7927 17.8983 9.96313 16.8786 9.96313ZM16.8786 12.7811C16.3445 12.7811 15.9099 12.3466 15.9099 11.8124C15.9099 11.2783 16.3445 10.8438 16.8786 10.8438C17.4127 10.8438 17.8473 11.2783 17.8473 11.8124C17.8473 12.3466 17.4127 12.7811 16.8786 12.7811Z" fill="#F0A14C"/>
<path d="M13.1217 15.1294H3.72834C3.22656 15.1294 2.81836 15.5376 2.81836 16.0394V17.918C2.81836 18.4198 3.22656 18.828 3.72834 18.828H13.1217C13.6235 18.828 14.0317 18.4198 14.0317 17.918V16.0394C14.0317 15.5376 13.6235 15.1294 13.1217 15.1294ZM13.151 17.918C13.151 17.9342 13.1379 17.9474 13.1217 17.9474H3.72834C3.71214 17.9474 3.69899 17.9342 3.69899 17.918V16.0394C3.69899 16.0232 3.71214 16.01 3.72834 16.01H13.1217C13.1379 16.01 13.151 16.0232 13.151 16.0394V17.918Z" fill="#F0A14C"/>
<path d="M26.7422 16.5385H26.1705C25.9863 15.9931 25.4701 15.5991 24.8633 15.5991C24.2565 15.5991 23.7403 15.9931 23.5561 16.5385H20.1669C19.9237 16.5385 19.7266 16.7356 19.7266 16.9788C19.7266 17.2219 19.9237 17.4191 20.1669 17.4191H23.5562C23.7404 17.9645 24.2566 18.3584 24.8634 18.3584C25.4702 18.3584 25.9863 17.9645 26.1706 17.4191H26.7423C26.9854 17.4191 27.1826 17.2219 27.1826 16.9788C27.1826 16.7356 26.9854 16.5385 26.7422 16.5385ZM24.8634 17.4778C24.5882 17.4778 24.3644 17.2539 24.3644 16.9788C24.3644 16.7036 24.5882 16.4797 24.8634 16.4797C25.1385 16.4797 25.3624 16.7036 25.3624 16.9788C25.3624 17.2539 25.1385 17.4778 24.8634 17.4778Z" fill="#F0A14C"/>
<path d="M16.8786 15.1294C15.8589 15.1294 15.0293 15.959 15.0293 16.9787C15.0293 17.9984 15.8589 18.828 16.8786 18.828C17.8983 18.828 18.7279 17.9984 18.7279 16.9787C18.7279 15.959 17.8983 15.1294 16.8786 15.1294ZM16.8786 17.9474C16.3445 17.9474 15.9099 17.5128 15.9099 16.9787C15.9099 16.4446 16.3445 16.01 16.8786 16.01C17.4127 16.01 17.8473 16.4446 17.8473 16.9787C17.8473 17.5128 17.4127 17.9474 16.8786 17.9474Z" fill="#F0A14C"/>
<path d="M13.1217 20.2957H3.72834C3.22656 20.2957 2.81836 20.7039 2.81836 21.2056V23.0843C2.81836 23.5861 3.22656 23.9943 3.72834 23.9943H13.1217C13.6235 23.9943 14.0317 23.5861 14.0317 23.0843V21.2056C14.0317 20.7039 13.6235 20.2957 13.1217 20.2957ZM13.151 23.0843C13.151 23.1004 13.1379 23.1137 13.1217 23.1137H3.72834C3.71214 23.1137 3.69899 23.1004 3.69899 23.0843V21.2056C3.69899 21.1895 3.71214 21.1763 3.72834 21.1763H13.1217C13.1379 21.1763 13.151 21.1895 13.151 21.2056V23.0843Z" fill="#F0A14C"/>
<path d="M26.7422 21.7047H24.2918C24.1076 21.1593 23.5915 20.7654 22.9846 20.7654C22.3778 20.7654 21.8617 21.1593 21.6774 21.7047H20.1669C19.9237 21.7047 19.7266 21.9019 19.7266 22.145C19.7266 22.3882 19.9237 22.5853 20.1669 22.5853H21.6775C21.8617 23.1307 22.3779 23.5247 22.9847 23.5247C23.5915 23.5247 24.1077 23.1307 24.2919 22.5853H26.7422C26.9854 22.5853 27.1825 22.3882 27.1825 22.145C27.1825 21.9019 26.9854 21.7047 26.7422 21.7047ZM22.9847 22.6441C22.7095 22.6441 22.4857 22.4202 22.4857 22.145C22.4857 21.8699 22.7095 21.646 22.9847 21.646C23.2599 21.646 23.4837 21.8699 23.4837 22.145C23.4837 22.4202 23.2599 22.6441 22.9847 22.6441Z" fill="#F0A14C"/>
<path d="M16.8786 20.2957C15.8589 20.2957 15.0293 21.1253 15.0293 22.145C15.0293 23.1647 15.8589 23.9943 16.8786 23.9943C17.8983 23.9943 18.7279 23.1647 18.7279 22.145C18.7279 21.1253 17.8983 20.2957 16.8786 20.2957ZM16.8786 23.1137C16.3445 23.1137 15.9099 22.6791 15.9099 22.145C15.9099 21.6108 16.3445 21.1763 16.8786 21.1763C17.4127 21.1763 17.8473 21.6108 17.8473 22.145C17.8473 22.6791 17.4127 23.1137 16.8786 23.1137Z" fill="#F0A14C"/>
<path d="M27.681 3.3877H2.31898C1.04031 3.3877 0 4.42801 0 5.70668V24.4934C0 25.772 1.04031 26.8124 2.31898 26.8124H27.681C28.9597 26.8124 30 25.772 30 24.4934V5.70668C30 4.42801 28.9597 3.3877 27.681 3.3877ZM2.31898 4.26832H27.681C28.4741 4.26832 29.1194 4.91359 29.1194 5.70668V7.14503H0.880626V5.70668C0.880626 4.91359 1.52589 4.26832 2.31898 4.26832ZM27.681 25.9317H2.31898C1.52589 25.9317 0.880626 25.2865 0.880626 24.4934V8.02566H29.1194V24.4934C29.1194 25.2865 28.4741 25.9317 27.681 25.9317Z" fill="#F0A14C"/>
</svg>
