<svg width="30" height="31" viewBox="0 0 30 31" fill="none" xmlns="http://www.w3.org/2000/svg">
<path d="M28.8281 2.71338H17.6369C17.3133 2.71338 17.051 2.9757 17.051 3.29932C17.051 3.62293 17.3133 3.88525 17.6369 3.88525H28.8281V7.40088H1.17188V3.88525H12.3631C12.6867 3.88525 12.949 3.62293 12.949 3.29932C12.949 2.9757 12.6867 2.71338 12.3631 2.71338H1.17188C0.525703 2.71338 0 3.23908 0 3.88525V26.3153C0 26.9615 0.525703 27.4872 1.17188 27.4872H28.8281C29.4743 27.4872 30 26.9615 30 26.3153V3.88525C30 3.23908 29.4743 2.71338 28.8281 2.71338ZM1.17188 26.3153V8.57275H28.8281V26.3153H1.17188Z" fill="#DB736F"/>
<path d="M15 3.88525C15.3236 3.88525 15.5859 3.62292 15.5859 3.29932C15.5859 2.97571 15.3236 2.71338 15 2.71338C14.6764 2.71338 14.4141 2.97571 14.4141 3.29932C14.4141 3.62292 14.6764 3.88525 15 3.88525Z" fill="#DB736F"/>
<path d="M5.53906 5.05713C5.21545 5.05713 4.95312 5.31945 4.95312 5.64307C4.95312 5.96668 5.21545 6.229 5.53906 6.229H10.3752C10.6988 6.229 10.9612 5.96668 10.9612 5.64307C10.9612 5.31945 10.6988 5.05713 10.3752 5.05713H5.53906Z" fill="#DB736F"/>
<path d="M3.19531 6.229C3.51892 6.229 3.78125 5.96667 3.78125 5.64307C3.78125 5.31946 3.51892 5.05713 3.19531 5.05713C2.87171 5.05713 2.60938 5.31946 2.60938 5.64307C2.60938 5.96667 2.87171 6.229 3.19531 6.229Z" fill="#DB736F"/>
<path d="M6.78125 23.5527C7.10485 23.5527 7.36719 23.2904 7.36719 22.9668C7.36719 22.6432 7.10485 22.3809 6.78125 22.3809C6.45765 22.3809 6.19531 22.6432 6.19531 22.9668C6.19531 23.2904 6.45765 23.5527 6.78125 23.5527Z" fill="#DB736F"/>
<path d="M7.16016 21.209C7.48377 21.209 7.7461 20.9467 7.7461 20.623C7.7461 20.2994 7.48377 20.0371 7.16016 20.0371C6.83655 20.0371 6.57422 20.2994 6.57422 20.623C6.57422 20.9467 6.83655 21.209 7.16016 21.209Z" fill="#DB736F"/>
<path d="M8.63672 18.8652C8.96032 18.8652 9.22266 18.6029 9.22266 18.2793C9.22266 17.9557 8.96032 17.6934 8.63672 17.6934C8.31311 17.6934 8.05078 17.9557 8.05078 18.2793C8.05078 18.6029 8.31311 18.8652 8.63672 18.8652Z" fill="#DB736F"/>
<path d="M21.4617 11.3354C20.1694 11.3354 19.118 12.3869 19.118 13.6792C19.118 13.7002 19.119 13.721 19.1196 13.742C17.2942 14.137 15.804 16.3663 15.1573 19.4656C15.0217 19.2052 14.8703 18.9568 14.7037 18.7227C13.8514 17.5239 12.6857 16.804 11.4213 16.6954C11.0986 16.6676 10.815 16.9067 10.7873 17.2291C10.7597 17.5515 10.9986 17.8353 11.321 17.863C13.2775 18.031 14.8099 20.2729 14.8099 22.967C14.8099 23.2906 15.0722 23.5529 15.3959 23.5529C15.7195 23.5529 15.9818 23.2906 15.9818 22.967C15.9818 20.731 16.4083 18.6382 17.1827 17.0738C17.8155 15.7957 18.6281 15.0109 19.4459 14.873C19.8547 15.5608 20.6051 16.023 21.4617 16.023C22.754 16.023 23.8054 14.9716 23.8054 13.6793C23.8055 12.3869 22.7541 11.3354 21.4617 11.3354ZM21.4617 14.8511C20.8155 14.8511 20.2898 14.3254 20.2898 13.6792C20.2898 13.033 20.8155 12.5073 21.4617 12.5073C22.1079 12.5073 22.6336 13.033 22.6336 13.6792C22.6336 14.3254 22.1079 14.8511 21.4617 14.8511Z" fill="#DB736F"/>
</svg>
