<svg width="30" height="31" viewBox="0 0 30 31" fill="none" xmlns="http://www.w3.org/2000/svg">
<path d="M1.875 9.94386H0.9375V8.06887C0.938198 7.44748 1.18535 6.85174 1.62474 6.41235C2.06413 5.97297 2.65986 5.72581 3.28125 5.72511H19.2188V4.78761H18.2812C18.1885 4.78762 18.0979 4.76013 18.0208 4.70862C17.9437 4.65711 17.8836 4.5839 17.8482 4.49825C17.8127 4.4126 17.8034 4.31834 17.8215 4.22741C17.8396 4.13648 17.8842 4.05296 17.9498 3.9874L20.7623 1.1749C20.8058 1.13137 20.8575 1.09684 20.9144 1.07328C20.9712 1.04972 21.0322 1.0376 21.0938 1.0376C21.1553 1.0376 21.2163 1.04972 21.2731 1.07328C21.33 1.09684 21.3817 1.13137 21.4252 1.1749L24.2377 3.9874C24.3033 4.05296 24.3479 4.13648 24.366 4.22741C24.3841 4.31834 24.3748 4.4126 24.3393 4.49825C24.3039 4.5839 24.2438 4.65711 24.1667 4.70862C24.0896 4.76013 23.999 4.78762 23.9062 4.78761H22.9688V5.72511H24.8438C25.4651 5.72581 26.0609 5.97297 26.5003 6.41235C26.9396 6.85174 27.1868 7.44748 27.1875 8.06887V17.4439H26.25V8.06887C26.2496 7.69604 26.1013 7.3386 25.8376 7.07498C25.574 6.81135 25.2166 6.66305 24.8438 6.66261H22.9688V15.1001H22.0312V4.31886C22.0312 4.19454 22.0806 4.07532 22.1685 3.98741C22.2565 3.8995 22.3757 3.85011 22.5 3.85011H22.7746L21.0938 2.16924L19.4129 3.85011H19.6875C19.8118 3.85011 19.931 3.8995 20.019 3.98741C20.1069 4.07532 20.1562 4.19454 20.1562 4.31886V15.5689H19.2188V6.66261H3.28125C2.90842 6.66305 2.55099 6.81135 2.28736 7.07498C2.02373 7.3386 1.87543 7.69604 1.875 8.06887V9.94386ZM3.28125 24.4751H11.0887L9.96369 28.2251H8.90625V29.1626H19.2188V28.2251H18.1613L17.5584 26.2154L16.6604 26.4849L17.1825 28.2251H10.9423L12.0673 24.4751H15.4688V23.5376H3.28125C2.90842 23.5372 2.55099 23.3889 2.28736 23.1253C2.02373 22.8616 1.87543 22.5042 1.875 22.1314V21.6626H15V20.7251H1.875V10.8814H0.9375V22.1314C0.938198 22.7528 1.18535 23.3485 1.62474 23.7879C2.06413 24.2273 2.65986 24.4744 3.28125 24.4751ZM17.3438 16.5064V9.00637H15.4688V19.7876H3.28125V18.8501H5.15625V15.1001C5.15625 14.9758 5.20564 14.8566 5.29354 14.7687C5.38145 14.6808 5.50068 14.6314 5.625 14.6314H8.4375C8.56182 14.6314 8.68105 14.6808 8.76896 14.7687C8.85686 14.8566 8.90625 14.9758 8.90625 15.1001V18.8501H9.84375V11.8189C9.84375 11.6945 9.89314 11.5753 9.98104 11.4874C10.069 11.3995 10.1882 11.3501 10.3125 11.3501H13.125C13.2493 11.3501 13.3685 11.3995 13.4565 11.4874C13.5444 11.5753 13.5938 11.6945 13.5938 11.8189V18.8501H14.5312V8.53762C14.5312 8.41329 14.5806 8.29407 14.6685 8.20616C14.7565 8.11825 14.8757 8.06887 15 8.06887H17.8125C17.9368 8.06887 18.056 8.11825 18.144 8.20616C18.2319 8.29407 18.2812 8.41329 18.2812 8.53762V16.5064H17.3438ZM7.96875 15.5689H6.09375V18.8501H7.96875V15.5689ZM12.6562 12.2876H10.7812V18.8501H12.6562V12.2876ZM3.28125 7.60012V8.53762H4.21875V7.60012H3.28125ZM6.09375 7.60012H5.15625V8.53762H6.09375V7.60012ZM7.03125 7.60012V8.53762H7.96875V7.60012H7.03125ZM28.6504 26.7622C28.9133 27.0264 29.0613 27.3837 29.0625 27.7564C29.0627 27.9411 29.0264 28.124 28.9558 28.2947C28.8852 28.4654 28.7816 28.6205 28.651 28.7511C28.5204 28.8817 28.3653 28.9853 28.1946 29.0559C28.0239 29.1265 27.841 29.1628 27.6562 29.1626C27.284 29.1594 26.9275 29.0116 26.6621 28.7505L24.4184 26.5069C23.2381 27.2031 21.8445 27.4449 20.4987 27.187C19.153 26.9291 17.9474 26.1893 17.1082 25.1061C16.269 24.0229 15.8536 22.6708 15.94 21.3033C16.0265 19.9357 16.6087 18.6467 17.5776 17.6777C18.5465 16.7088 19.8356 16.1266 21.2031 16.0401C22.5707 15.9537 23.9228 16.3691 25.006 17.2083C26.0891 18.0476 26.829 19.2531 27.0869 20.5989C27.3448 21.9446 27.103 23.3383 26.4067 24.5185L28.6504 26.7622ZM26.25 21.6626C26.25 20.7355 25.9751 19.8292 25.46 19.0584C24.9449 18.2875 24.2129 17.6867 23.3563 17.3319C22.4998 16.9771 21.5573 16.8843 20.648 17.0652C19.7387 17.2461 18.9035 17.6925 18.2479 18.3481C17.5924 19.0036 17.1459 19.8388 16.9651 20.7481C16.7842 21.6574 16.877 22.5999 17.2318 23.4564C17.5866 24.313 18.1874 25.0451 18.9583 25.5601C19.7291 26.0752 20.6354 26.3501 21.5625 26.3501C22.8053 26.3487 23.9967 25.8544 24.8755 24.9756C25.7543 24.0968 26.2486 22.9054 26.25 21.6626ZM27.9874 27.4252L25.8554 25.293C25.6532 25.5317 25.4316 25.7533 25.1929 25.9555L27.3251 28.0875C27.3681 28.1329 27.4198 28.1692 27.4771 28.1942C27.5344 28.2192 27.5961 28.2326 27.6586 28.2334C27.7212 28.2342 27.7832 28.2225 27.8411 28.1989C27.8991 28.1754 27.9517 28.1405 27.9959 28.0962C28.0401 28.052 28.075 27.9994 28.0986 27.9415C28.1221 27.8836 28.1338 27.8215 28.133 27.759C28.1322 27.6965 28.1189 27.6348 28.0938 27.5775C28.0688 27.5202 28.0325 27.4685 27.9872 27.4254L27.9874 27.4252ZM25.3125 21.6626C25.3125 22.4043 25.0926 23.1293 24.6805 23.746C24.2685 24.3627 23.6828 24.8433 22.9976 25.1272C22.3123 25.411 21.5583 25.4853 20.8309 25.3406C20.1035 25.1959 19.4353 24.8387 18.9109 24.3143C18.3864 23.7898 18.0292 23.1216 17.8846 22.3942C17.7399 21.6668 17.8141 20.9128 18.098 20.2276C18.3818 19.5423 18.8624 18.9567 19.4791 18.5446C20.0958 18.1326 20.8208 17.9126 21.5625 17.9126C22.5567 17.9137 23.5099 18.3092 24.2129 19.0122C24.9159 19.7152 25.3114 20.6684 25.3125 21.6626ZM24.375 21.6626C24.375 21.1064 24.2101 20.5626 23.901 20.1001C23.592 19.6376 23.1527 19.2771 22.6388 19.0642C22.1249 18.8513 21.5594 18.7956 21.0138 18.9042C20.4682 19.0127 19.9671 19.2805 19.5738 19.6739C19.1804 20.0672 18.9126 20.5684 18.804 21.1139C18.6955 21.6595 18.7512 22.225 18.9641 22.7389C19.177 23.2528 19.5374 23.6921 20 24.0011C20.4625 24.3102 21.0062 24.4751 21.5625 24.4751C22.3082 24.4743 23.0231 24.1777 23.5503 23.6504C24.0776 23.1232 24.3742 22.4083 24.375 21.6626ZM19.6875 21.6626H20.625C20.6253 21.4141 20.7242 21.1758 20.8999 21C21.0757 20.8243 21.3139 20.7254 21.5625 20.7251V19.7876C21.0654 19.7882 20.5888 19.9859 20.2373 20.3374C19.8858 20.6889 19.6881 21.1655 19.6875 21.6626ZM25.7812 3.85011H26.7188C26.7179 3.10445 26.4213 2.38955 25.8941 1.86228C25.3668 1.33502 24.6519 1.03844 23.9062 1.03761V1.97511C24.4034 1.97567 24.8799 2.1734 25.2315 2.52491C25.583 2.87642 25.7807 3.35301 25.7812 3.85011Z" fill="#8BC16A"/>
</svg>
